<svg xmlns="http://www.w3.org/2000/svg" viewBox="0 0 508.58 69.28"><defs><style>.cls-1{fill:#fff;}</style></defs><title>nd_logo_white</title><g id="Layer_2" data-name="Layer 2"><g id="Layer_1-2" data-name="Layer 1"><path class="cls-1" d="M82.51,66.06v-37a2.87,2.87,0,0,0-2.87-2.87h-.53a2.87,2.87,0,0,0-2.87,2.87V56.58h-.11l-17.9-29a2.86,2.86,0,0,0-2.44-1.36H54.36a2.86,2.86,0,0,0-2.87,2.87v37a2.86,2.86,0,0,0,2.87,2.87h.52a2.87,2.87,0,0,0,2.87-2.87V38.57h.11l17.87,29a2.86,2.86,0,0,0,2.44,1.36h1.47A2.87,2.87,0,0,0,82.51,66.06Z"/><path class="cls-1" d="M120.44,66.82a14.6,14.6,0,0,0,5-5,20.67,20.67,0,0,0,1.17-2.2,11,11,0,0,0,.68-2.46,64.32,64.32,0,0,0,.48-9.61,89.36,89.36,0,0,0-.31-9.11,13.17,13.17,0,0,0-1.9-5,13.82,13.82,0,0,0-12.6-7.2H101.4a2.87,2.87,0,0,0-2.87,2.87v37a2.87,2.87,0,0,0,2.87,2.87h11.18A14,14,0,0,0,120.44,66.82ZM104.79,35.18a2.87,2.87,0,0,1,2.87-2.87h4.64a8.2,8.2,0,0,1,7.38,3.61,7.37,7.37,0,0,1,1.62,3.9q.26,2.41.26,8a76.83,76.83,0,0,1-.26,7.81A7.24,7.24,0,0,1,120,59.11q-2.39,3.73-7.67,3.73h-4.64A2.87,2.87,0,0,1,104.79,60Z"/><path class="cls-1" d="M166.74,65.15q4.11-3.95,4.23-10.69V29.09a2.86,2.86,0,0,0-2.87-2.87h-.52a2.86,2.86,0,0,0-2.87,2.87V53.78q-.06,4.36-2.39,6.66a8.18,8.18,0,0,1-6,2.4,8,8,0,0,1-6-2.4c-1.59-1.53-2.41-3.75-2.44-6.66V29.09A2.87,2.87,0,0,0,145,26.22h-.53a2.87,2.87,0,0,0-2.87,2.87V54.48q.06,6.72,4.32,10.68a15.25,15.25,0,0,0,20.86,0Z"/><path class="cls-1" d="M212.83,56.85a12.37,12.37,0,0,0-2.75-8q-2.79-3.5-8.6-4.32c-2-.25-3.52-.47-4.66-.67a7.94,7.94,0,0,1-4.46-2.11A4.82,4.82,0,0,1,191,38.44a5.63,5.63,0,0,1,2.08-4.64,7.65,7.65,0,0,1,4.82-1.49,18.44,18.44,0,0,1,8.13,2,2.82,2.82,0,0,0,3.62-1l.4-.61a2.87,2.87,0,0,0-1-4.09,23.37,23.37,0,0,0-10.81-2.74c-4.28,0-7.57,1.19-9.9,3.46a11.88,11.88,0,0,0-3.6,9,11.56,11.56,0,0,0,2.87,7.91,13.39,13.39,0,0,0,8.11,4.08l5.48.79c3.64.65,5.43,2.56,5.4,5.75q-.12,5.84-8.18,6a18,18,0,0,1-9.78-2.79,2.85,2.85,0,0,0-3.71.58l-.45.53A2.88,2.88,0,0,0,185,65.4a23.24,23.24,0,0,0,13.28,3.88Q212.52,69.12,212.83,56.85Z"/><path class="cls-1" d="M239.84,66.06V34.83A2.86,2.86,0,0,1,242.71,32h5.6a2.87,2.87,0,1,0,0-5.74H225.1a2.87,2.87,0,0,0,0,5.74h5.6a2.86,2.86,0,0,1,2.87,2.87V66.06a2.87,2.87,0,0,0,2.87,2.87H237A2.87,2.87,0,0,0,239.84,66.06Z"/><path class="cls-1" d="M290.73,64.77l-6.18-12.23a2.88,2.88,0,0,1,1.09-3.75q5.5-3.37,5.61-10.65c-.12-3.94-1.48-7-4.11-9.11a12.43,12.43,0,0,0-8.43-2.81h-13.3a2.87,2.87,0,0,0-2.87,2.87v37a2.87,2.87,0,0,0,2.87,2.87h.52a2.86,2.86,0,0,0,2.87-2.87V53.55a2.87,2.87,0,0,1,2.87-2.87H275a2.86,2.86,0,0,1,2.6,1.65l7,15a2.85,2.85,0,0,0,2.59,1.65h1A2.87,2.87,0,0,0,290.73,64.77ZM278.31,44.94h-6.64a2.87,2.87,0,0,1-2.87-2.87V34.83A2.87,2.87,0,0,1,271.67,32h7a7.08,7.08,0,0,1,4.61,1.32,5.75,5.75,0,0,1,2.07,4.84,6.58,6.58,0,0,1-7,6.82Z"/><rect class="cls-1" x="305.13" y="26.22" width="6.26" height="42.71" rx="2.87" ry="2.87"/><path class="cls-1" d="M356.58,66,343.1,27.7A2.21,2.21,0,0,0,341,26.22H338.9a2.21,2.21,0,0,0-2.09,1.48L323.33,66a2.22,2.22,0,0,0,2.09,3h1.92a2.22,2.22,0,0,0,2.1-1.51l2.17-6.53a2.22,2.22,0,0,1,2.1-1.51h12.5a2.22,2.22,0,0,1,2.1,1.51l2.19,6.53a2.23,2.23,0,0,0,2.1,1.51h1.89A2.21,2.21,0,0,0,356.58,66ZM343,53.64h-6a2.22,2.22,0,0,1-2.11-2.89L339.91,35H340l5.06,15.79A2.21,2.21,0,0,1,343,53.64Z"/><path class="cls-1" d="M395.62,66.06v-.35a2.87,2.87,0,0,0-2.87-2.87H378.33A2.86,2.86,0,0,1,375.46,60V29.09a2.87,2.87,0,0,0-2.87-2.87h-.53a2.87,2.87,0,0,0-2.87,2.87v37a2.87,2.87,0,0,0,2.87,2.87h20.69A2.86,2.86,0,0,0,395.62,66.06Z"/><rect class="cls-1" x="408.21" y="62.84" width="5.91" height="6.09" rx="2.87" ry="2.87"/><path class="cls-1" d="M435.21,66.06V28.45a6.3,6.3,0,1,0-6.26,0V66.06a2.86,2.86,0,0,0,2.87,2.87h.52A2.86,2.86,0,0,0,435.21,66.06Z"/><path class="cls-1" d="M478.89,53.81a15.12,15.12,0,1,0-15.12,15.12A15.13,15.13,0,0,0,478.89,53.81Zm-24.24,0a9.12,9.12,0,1,1,9.12,9.12A9.13,9.13,0,0,1,454.65,53.81Z"/><path class="cls-1" d="M11.93,61.46a2.51,2.51,0,0,0,3.54,0,2.52,2.52,0,0,0,0-3.54L6,48.49l9.43-9.43a2.5,2.5,0,0,0-3.54-3.54L.73,46.72a2.52,2.52,0,0,0,0,3.54Z"/><path class="cls-1" d="M493.11,61.46a2.49,2.49,0,0,0,1.77.73,2.45,2.45,0,0,0,1.76-.73l11.2-11.2a2.5,2.5,0,0,0,0-3.54l-11.2-11.2a2.5,2.5,0,0,0-3.53,3.54l9.43,9.43-9.43,9.43A2.5,2.5,0,0,0,493.11,61.46Z"/><path class="cls-1" d="M23.89,66.67a2.45,2.45,0,0,0,.83.14,2.5,2.5,0,0,0,2.36-1.66L38.26,33.5a2.5,2.5,0,0,0-4.72-1.66L22.37,63.48A2.5,2.5,0,0,0,23.89,66.67Z"/><path class="cls-1" d="M432.12,12.6a10.4,10.4,0,0,1,7.36,17.75l-.42.39a2,2,0,0,0,2.69,3l.56-.53a14.4,14.4,0,1,0-20.37,0,2,2,0,1,0,2.83-2.83,10.4,10.4,0,0,1,7.35-17.75Z"/><path class="cls-1" d="M423.17,44.19a2.16,2.16,0,0,0,.78.15,2,2,0,0,0,.78-3.84,19.15,19.15,0,0,1-6-4.07,19,19,0,1,1,20.93,4,2,2,0,0,0,1.57,3.68,23,23,0,1,0-18,0Z"/></g></g></svg>
